<svg width="31" height="29" viewBox="0 0 31 29" fill="none" xmlns="http://www.w3.org/2000/svg">
<path d="M28.6459 9.79769H27.5429L22.6043 0.48304C22.3693 0.0398366 21.8195 -0.128786 21.3763 0.105954C20.9331 0.340936 20.7643 0.890702 20.9993 1.33391L25.4868 9.79757H5.64497L10.1325 1.33391C10.3674 0.890702 10.1986 0.340936 9.75543 0.105954C9.31229 -0.128968 8.76247 0.0398366 8.52748 0.48304L3.58892 9.79769H2.35412C1.05606 9.79769 0 10.8538 0 12.1518C0 13.4499 1.05606 14.5059 2.35412 14.5059H2.41945C2.42145 14.5189 2.42296 14.5319 2.42527 14.5449L4.31941 25.1656C4.67561 27.1627 6.40646 28.6122 8.43503 28.6122H22.6966C24.7252 28.6122 26.4561 27.1627 26.8122 25.1656L28.7064 14.5449C28.7088 14.5314 28.7104 14.5178 28.7125 14.5043C29.9798 14.4688 30.9999 13.4275 30.9999 12.1518C31 10.8537 29.9439 9.79769 28.6459 9.79769ZM25.024 24.8467C24.8226 25.9761 23.8438 26.7957 22.6967 26.7957H8.43509C7.28797 26.7957 6.30923 25.9761 6.10779 24.8467L4.26365 14.5059H26.8682L25.024 24.8467ZM28.6459 12.6894H2.35412C2.05769 12.6894 1.81659 12.4483 1.81659 12.1518C1.81659 11.8554 2.05769 11.6142 2.35412 11.6142H28.6459C28.9423 11.6142 29.1834 11.8553 29.1834 12.1518C29.1834 12.4483 28.9423 12.6894 28.6459 12.6894Z" fill="#EFECFF"/>
</svg>
